<svg version="1.0" preserveAspectRatio="xMidYMid meet" viewBox="74.25 138.74999667 218.24999999999997 88.499997876" zoomAndPan="magnify" xmlns:xlink="http://www.w3.org/1999/xlink" xmlns="http://www.w3.org/2000/svg" style="max-height: 500px" width="218.24999999999997" height="88.499997876"><defs><g/><clipPath id="9d49b23d00"><path clip-rule="nonzero" d="M 154.296875 166.804688 L 267.546875 166.804688 L 267.546875 192 L 154.296875 192 Z M 154.296875 166.804688"/></clipPath><clipPath id="2c345b3d8a"><path clip-rule="nonzero" d="M 1 1 L 30 1 L 30 55.558594 L 1 55.558594 Z M 1 1"/></clipPath><clipPath id="66c14cdc97"><rect height="56" y="0" width="74" x="0"/></clipPath><clipPath id="16079890e6"><rect height="11" y="0" width="127" x="0"/></clipPath><clipPath id="f01f0f3453"><rect height="20" y="0" width="28" x="0"/></clipPath></defs><rect fill-opacity="1" height="449.999989" y="-37.499999" fill="#ffffff" width="450" x="-37.5"/><rect fill-opacity="1" height="449.999989" y="-37.499999" fill="#284139" width="450" x="-37.5"/><g clip-path="url(#9d49b23d00)"><path fill-rule="nonzero" fill-opacity="1" d="M 267.296875 166.804688 C 265.570312 171.476562 262.949219 175.589844 259.425781 179.144531 C 255.90625 182.703125 251.667969 185.417969 246.707031 187.285156 C 241.75 189.15625 236.144531 190.070312 229.890625 190.035156 C 223.640625 190 216.882812 188.722656 209.625 186.207031 C 205.027344 184.628906 200.789062 183.53125 196.90625 182.917969 C 193.027344 182.308594 189.34375 182.128906 185.859375 182.378906 C 182.371094 182.632812 178.996094 183.28125 175.726562 184.320312 C 172.453125 185.363281 169.097656 186.675781 165.648438 188.253906 C 164.496094 188.757812 163.453125 189.261719 162.519531 189.765625 C 161.585938 190.265625 160.6875 190.609375 159.824219 190.789062 C 158.964844 190.96875 158.046875 190.914062 157.078125 190.625 C 156.398438 190.425781 155.640625 190.046875 154.804688 189.492188 C 154.714844 189.511719 154.617188 189.519531 154.515625 189.523438 C 154.453125 189.582031 154.386719 189.636719 154.3125 189.683594 L 154.3125 190.261719 C 154.46875 190.363281 154.59375 190.496094 154.6875 190.648438 C 155.589844 191.191406 156.421875 191.546875 157.183594 191.703125 C 158.226562 191.917969 159.214844 191.9375 160.148438 191.757812 C 161.082031 191.578125 162.035156 191.257812 163.003906 190.789062 C 163.976562 190.320312 165.070312 189.800781 166.292969 189.226562 C 169.453125 187.789062 172.632812 186.566406 175.832031 185.558594 C 179.03125 184.554688 182.371094 183.90625 185.859375 183.621094 C 189.34375 183.332031 193.007812 183.511719 196.851562 184.160156 C 200.695312 184.804688 204.847656 186.0625 209.304688 187.929688 C 214.546875 190.085938 220.207031 191.292969 226.28125 191.542969 C 232.351562 191.796875 238.171875 191.074219 243.742188 189.386719 C 249.3125 187.699219 254.269531 185.003906 258.621094 181.300781 C 262.964844 177.601562 266.039062 172.839844 267.835938 167.019531 Z M 267.296875 166.804688" fill="#f8d794"/></g><g transform="matrix(1, 0, 0, 1, 82, 159)"><g clip-path="url(#66c14cdc97)"><g clip-path="url(#2c345b3d8a)"><g fill-opacity="1" fill="#f8d794"><g transform="translate(0.637351, 37.973851)"><g><path d="M 28.59375 5.640625 C 28.789062 5.640625 28.953125 5.707031 29.078125 5.84375 C 29.210938 5.976562 29.28125 6.140625 29.28125 6.328125 C 29.28125 6.523438 29.207031 6.6875 29.0625 6.8125 C 28.925781 6.945312 28.757812 7.015625 28.5625 7.015625 C 27.332031 6.992188 25.9375 7.269531 24.375 7.84375 C 22.820312 8.425781 21.203125 9.164062 19.515625 10.0625 C 17.828125 10.957031 16.1875 11.851562 14.59375 12.75 C 12.46875 13.945312 10.546875 14.976562 8.828125 15.84375 C 7.117188 16.71875 5.671875 17.15625 4.484375 17.15625 C 3.835938 17.15625 3.296875 17 2.859375 16.6875 C 1.742188 15.84375 1.515625 14 2.171875 11.15625 C 2.578125 9.414062 3.0625 7.40625 3.625 5.125 C 4.195312 2.84375 4.820312 0.414062 5.5 -2.15625 C 6.175781 -4.726562 6.867188 -7.332031 7.578125 -9.96875 C 8.296875 -12.613281 9.003906 -15.15625 9.703125 -17.59375 C 10.640625 -20.851562 11.453125 -23.597656 12.140625 -25.828125 C 12.828125 -28.066406 13.414062 -29.894531 13.90625 -31.3125 C 14.40625 -32.738281 14.820312 -33.835938 15.15625 -34.609375 C 15.5 -35.378906 15.789062 -35.925781 16.03125 -36.25 C 16.28125 -36.582031 16.484375 -36.769531 16.640625 -36.8125 C 16.796875 -36.863281 16.945312 -36.878906 17.09375 -36.859375 C 17.550781 -36.785156 17.816406 -36.441406 17.890625 -35.828125 C 17.960938 -35.210938 17.945312 -34.25 17.84375 -32.9375 C 17.820312 -32.75 17.738281 -32.59375 17.59375 -32.46875 C 17.445312 -32.351562 17.28125 -32.304688 17.09375 -32.328125 C 16.894531 -32.328125 16.726562 -32.398438 16.59375 -32.546875 C 16.46875 -32.691406 16.414062 -32.859375 16.4375 -33.046875 C 16.488281 -33.484375 16.523438 -33.882812 16.546875 -34.25 C 16.253906 -33.59375 15.859375 -32.578125 15.359375 -31.203125 C 14.867188 -29.828125 14.25 -27.925781 13.5 -25.5 C 12.75 -23.070312 11.832031 -19.953125 10.75 -16.140625 C 10.070312 -13.773438 9.390625 -11.316406 8.703125 -8.765625 C 8.015625 -6.222656 7.34375 -3.710938 6.6875 -1.234375 C 6.039062 1.234375 5.445312 3.554688 4.90625 5.734375 C 4.363281 7.921875 3.910156 9.832031 3.546875 11.46875 C 3.328125 12.4375 3.210938 13.203125 3.203125 13.765625 C 3.191406 14.335938 3.238281 14.753906 3.34375 15.015625 C 3.457031 15.285156 3.570312 15.46875 3.6875 15.5625 C 4.03125 15.800781 4.554688 15.84375 5.265625 15.6875 C 5.972656 15.53125 6.796875 15.234375 7.734375 14.796875 C 8.679688 14.367188 9.6875 13.863281 10.75 13.28125 C 11.8125 12.707031 12.863281 12.128906 13.90625 11.546875 C 15.539062 10.609375 17.234375 9.679688 18.984375 8.765625 C 20.734375 7.847656 22.425781 7.085938 24.0625 6.484375 C 25.707031 5.878906 27.21875 5.597656 28.59375 5.640625 Z M 28.59375 5.640625"/></g></g></g></g><g fill-opacity="1" fill="#f8d794"><g transform="translate(25.176361, 37.973851)"><g><path d="M 10.609375 -8.25 C 10.773438 -8.15625 10.875 -8.007812 10.90625 -7.8125 C 10.945312 -7.625 10.921875 -7.445312 10.828125 -7.28125 C 10.367188 -6.550781 9.785156 -5.738281 9.078125 -4.84375 C 8.378906 -3.957031 7.617188 -3.109375 6.796875 -2.296875 C 5.984375 -1.492188 5.171875 -0.828125 4.359375 -0.296875 C 3.554688 0.234375 2.816406 0.5 2.140625 0.5 C 1.847656 0.5 1.59375 0.453125 1.375 0.359375 C 0.550781 -0.00390625 0.0976562 -0.878906 0.015625 -2.265625 C -0.0664062 -3.648438 0.21875 -5.609375 0.875 -8.140625 C 0.914062 -8.335938 1.019531 -8.484375 1.1875 -8.578125 C 1.363281 -8.671875 1.535156 -8.695312 1.703125 -8.65625 C 1.890625 -8.601562 2.03125 -8.492188 2.125 -8.328125 C 2.226562 -8.160156 2.253906 -7.988281 2.203125 -7.8125 C 1.816406 -6.269531 1.578125 -5.046875 1.484375 -4.140625 C 1.390625 -3.234375 1.367188 -2.550781 1.421875 -2.09375 C 1.484375 -1.632812 1.570312 -1.328125 1.6875 -1.171875 C 1.8125 -1.015625 1.890625 -0.9375 1.921875 -0.9375 C 2.234375 -0.789062 2.691406 -0.894531 3.296875 -1.25 C 3.898438 -1.601562 4.570312 -2.125 5.3125 -2.8125 C 6.0625 -3.5 6.816406 -4.289062 7.578125 -5.1875 C 8.335938 -6.09375 9.019531 -7.039062 9.625 -8.03125 C 9.75 -8.207031 9.898438 -8.3125 10.078125 -8.34375 C 10.265625 -8.382812 10.441406 -8.351562 10.609375 -8.25 Z M 2.0625 -11.15625 C 1.582031 -11.175781 1.332031 -11.3125 1.3125 -11.5625 C 1.300781 -11.820312 1.410156 -12.082031 1.640625 -12.34375 C 1.867188 -12.613281 2.109375 -12.796875 2.359375 -12.890625 C 2.742188 -13.003906 3.023438 -12.976562 3.203125 -12.8125 C 3.378906 -12.644531 3.460938 -12.425781 3.453125 -12.15625 C 3.441406 -11.894531 3.320312 -11.65625 3.09375 -11.4375 C 2.863281 -11.21875 2.519531 -11.125 2.0625 -11.15625 Z M 2.0625 -11.15625"/></g></g></g><g fill-opacity="1" fill="#f8d794"><g transform="translate(34.333251, 37.973851)"><g><path d="M 13.109375 -7.890625 C 13.273438 -7.773438 13.367188 -7.617188 13.390625 -7.421875 C 13.421875 -7.222656 13.375 -7.054688 13.25 -6.921875 C 12.625 -6.117188 11.894531 -5.40625 11.0625 -4.78125 C 10.226562 -4.15625 9.359375 -3.691406 8.453125 -3.390625 C 7.546875 -3.085938 6.671875 -3.03125 5.828125 -3.21875 C 5.492188 -2.375 5.015625 -1.722656 4.390625 -1.265625 C 3.773438 -0.804688 3.15625 -0.578125 2.53125 -0.578125 C 2.53125 -0.578125 2.523438 -0.578125 2.515625 -0.578125 C 2.503906 -0.578125 2.5 -0.578125 2.5 -0.578125 C 1.84375 -0.597656 1.265625 -0.816406 0.765625 -1.234375 C 0.273438 -1.660156 -0.0625 -2.25 -0.25 -3 C -0.46875 -3.84375 -0.503906 -4.644531 -0.359375 -5.40625 C -0.210938 -6.164062 0.0507812 -6.835938 0.4375 -7.421875 C 0.820312 -8.003906 1.253906 -8.453125 1.734375 -8.765625 C 1.898438 -8.878906 2.09375 -8.898438 2.3125 -8.828125 C 2.53125 -9.359375 2.835938 -9.769531 3.234375 -10.0625 C 3.640625 -10.351562 4.054688 -10.460938 4.484375 -10.390625 C 4.753906 -10.335938 5.046875 -10.171875 5.359375 -9.890625 C 5.671875 -9.617188 5.921875 -9.125 6.109375 -8.40625 C 6.304688 -7.695312 6.367188 -6.65625 6.296875 -5.28125 C 6.273438 -5.039062 6.238281 -4.800781 6.1875 -4.5625 C 6.84375 -4.4375 7.53125 -4.503906 8.25 -4.765625 C 8.976562 -5.035156 9.679688 -5.441406 10.359375 -5.984375 C 11.035156 -6.535156 11.625 -7.132812 12.125 -7.78125 C 12.25 -7.925781 12.40625 -8.007812 12.59375 -8.03125 C 12.789062 -8.0625 12.960938 -8.015625 13.109375 -7.890625 Z M 2.53125 -1.984375 C 2.84375 -1.984375 3.191406 -2.128906 3.578125 -2.421875 C 3.960938 -2.710938 4.28125 -3.148438 4.53125 -3.734375 C 3.65625 -4.210938 3.03125 -4.765625 2.65625 -5.390625 C 2.28125 -6.015625 2.082031 -6.644531 2.0625 -7.28125 C 1.550781 -6.789062 1.21875 -6.171875 1.0625 -5.421875 C 0.90625 -4.679688 0.914062 -4.007812 1.09375 -3.40625 C 1.15625 -3.132812 1.296875 -2.828125 1.515625 -2.484375 C 1.734375 -2.148438 2.070312 -1.984375 2.53125 -1.984375 Z M 4.890625 -5.359375 C 4.929688 -6.328125 4.910156 -7.078125 4.828125 -7.609375 C 4.742188 -8.140625 4.640625 -8.5 4.515625 -8.6875 C 4.398438 -8.882812 4.316406 -8.992188 4.265625 -9.015625 C 4.242188 -9.015625 4.234375 -9.015625 4.234375 -9.015625 C 4.160156 -9.015625 4.050781 -8.941406 3.90625 -8.796875 C 3.757812 -8.648438 3.640625 -8.429688 3.546875 -8.140625 C 3.398438 -7.679688 3.410156 -7.179688 3.578125 -6.640625 C 3.753906 -6.097656 4.191406 -5.597656 4.890625 -5.140625 C 4.890625 -5.210938 4.890625 -5.285156 4.890625 -5.359375 Z M 4.890625 -5.359375"/></g></g></g><g fill-opacity="1" fill="#f8d794"><g transform="translate(45.915085, 37.973851)"><g><path d="M 15.890625 -8.21875 C 16.054688 -8.125 16.175781 -7.984375 16.25 -7.796875 C 16.320312 -7.617188 16.3125 -7.445312 16.21875 -7.28125 C 15.757812 -6.289062 15.195312 -5.175781 14.53125 -3.9375 C 13.875 -2.707031 13.171875 -1.472656 12.421875 -0.234375 C 11.671875 1.003906 10.910156 2.132812 10.140625 3.15625 C 9.367188 4.1875 8.617188 5.019531 7.890625 5.65625 C 7.171875 6.300781 6.519531 6.625 5.9375 6.625 C 5.769531 6.625 5.613281 6.585938 5.46875 6.515625 C 4.957031 6.328125 4.625 5.867188 4.46875 5.140625 C 4.3125 4.421875 4.332031 3.382812 4.53125 2.03125 C 4.863281 -0.40625 5.753906 -3.859375 7.203125 -8.328125 C 7.179688 -8.328125 7.160156 -8.320312 7.140625 -8.3125 C 7.128906 -8.300781 7.113281 -8.296875 7.09375 -8.296875 C 6.613281 -7.953125 6.035156 -7.597656 5.359375 -7.234375 C 4.679688 -6.878906 3.976562 -6.640625 3.25 -6.515625 C 2.53125 -6.390625 1.84375 -6.546875 1.1875 -6.984375 C 0.269531 -7.640625 -0.195312 -8.546875 -0.21875 -9.703125 C -0.238281 -10.859375 0.195312 -12.125 1.09375 -13.5 C 1.375 -13.9375 1.75 -14.421875 2.21875 -14.953125 C 2.695312 -15.484375 3.191406 -15.894531 3.703125 -16.1875 C 4.222656 -16.476562 4.691406 -16.488281 5.109375 -16.21875 C 5.328125 -16.09375 5.488281 -15.882812 5.59375 -15.59375 C 5.695312 -15.3125 5.6875 -14.867188 5.5625 -14.265625 C 5.445312 -13.660156 5.160156 -12.847656 4.703125 -11.828125 C 4.242188 -10.816406 3.554688 -9.503906 2.640625 -7.890625 C 3.191406 -7.816406 3.8125 -7.972656 4.5 -8.359375 C 5.195312 -8.742188 5.804688 -9.109375 6.328125 -9.453125 C 6.835938 -9.785156 7.257812 -10.03125 7.59375 -10.1875 C 7.9375 -10.34375 8.253906 -10.3125 8.546875 -10.09375 C 8.804688 -9.882812 8.910156 -9.617188 8.859375 -9.296875 C 8.816406 -8.984375 8.769531 -8.742188 8.71875 -8.578125 C 7.925781 -6.066406 7.3125 -3.976562 6.875 -2.3125 C 6.445312 -0.644531 6.148438 0.691406 5.984375 1.703125 C 5.828125 2.710938 5.75 3.472656 5.75 3.984375 C 5.75 4.492188 5.785156 4.828125 5.859375 4.984375 C 5.929688 5.140625 5.96875 5.226562 5.96875 5.25 C 6.257812 5.300781 6.859375 4.835938 7.765625 3.859375 C 8.671875 2.878906 9.75 1.40625 11 -0.5625 C 12.257812 -2.53125 13.578125 -4.960938 14.953125 -7.859375 C 15.046875 -8.046875 15.179688 -8.171875 15.359375 -8.234375 C 15.546875 -8.296875 15.722656 -8.289062 15.890625 -8.21875 Z M 1.296875 -10.6875 C 1.160156 -10.175781 1.117188 -9.753906 1.171875 -9.421875 C 1.234375 -9.097656 1.328125 -8.84375 1.453125 -8.65625 C 2.222656 -10.007812 2.804688 -11.109375 3.203125 -11.953125 C 3.597656 -12.796875 3.867188 -13.445312 4.015625 -13.90625 C 4.160156 -14.363281 4.242188 -14.6875 4.265625 -14.875 C 4.003906 -14.726562 3.671875 -14.453125 3.265625 -14.046875 C 2.867188 -13.640625 2.484375 -13.144531 2.109375 -12.5625 C 1.742188 -11.976562 1.472656 -11.351562 1.296875 -10.6875 Z M 1.296875 -10.6875"/></g></g></g><g fill-opacity="1" fill="#f8d794"><g transform="translate(60.356179, 37.973851)"><g><path d="M 12.234375 -8.078125 C 12.398438 -7.972656 12.492188 -7.820312 12.515625 -7.625 C 12.546875 -7.4375 12.515625 -7.269531 12.421875 -7.125 C 10.992188 -5.144531 9.6875 -3.507812 8.5 -2.21875 C 7.320312 -0.9375 6.140625 0.128906 4.953125 0.984375 C 4.066406 1.609375 3.1875 1.921875 2.3125 1.921875 C 1.632812 1.921875 1.046875 1.738281 0.546875 1.375 C 0.203125 1.132812 -0.128906 0.707031 -0.453125 0.09375 C -0.773438 -0.519531 -0.945312 -1.410156 -0.96875 -2.578125 C -1 -3.753906 -0.710938 -5.296875 -0.109375 -7.203125 C -0.109375 -7.203125 -0.109375 -7.210938 -0.109375 -7.234375 C 0.617188 -9.554688 1.46875 -11.328125 2.4375 -12.546875 C 3.414062 -13.765625 4.253906 -14.382812 4.953125 -14.40625 C 5.515625 -14.425781 5.878906 -14.1875 6.046875 -13.6875 C 6.304688 -12.988281 5.988281 -11.992188 5.09375 -10.703125 C 4.207031 -9.410156 2.894531 -8.039062 1.15625 -6.59375 C 0.625 -4.90625 0.367188 -3.582031 0.390625 -2.625 C 0.421875 -1.664062 0.554688 -0.972656 0.796875 -0.546875 C 1.035156 -0.128906 1.226562 0.132812 1.375 0.25 C 2.101562 0.78125 3.03125 0.632812 4.15625 -0.1875 C 5.269531 -0.957031 6.394531 -1.960938 7.53125 -3.203125 C 8.664062 -4.441406 9.910156 -6.015625 11.265625 -7.921875 C 11.378906 -8.066406 11.53125 -8.15625 11.71875 -8.1875 C 11.914062 -8.226562 12.085938 -8.191406 12.234375 -8.078125 Z M 4.703125 -12.890625 C 4.441406 -12.722656 4.082031 -12.363281 3.625 -11.8125 C 3.164062 -11.269531 2.691406 -10.484375 2.203125 -9.453125 C 3.078125 -10.296875 3.691406 -11.007812 4.046875 -11.59375 C 4.410156 -12.1875 4.628906 -12.617188 4.703125 -12.890625 Z M 4.703125 -12.890625"/></g></g></g></g></g><g transform="matrix(1, 0, 0, 1, 162, 199)"><g clip-path="url(#16079890e6)"><g fill-opacity="1" fill="#ffffff"><g transform="translate(0.387035, 7.490928)"><g><path d="M 2.28125 0.109375 C 1.976562 0.109375 1.691406 0.0664062 1.421875 -0.015625 C 1.148438 -0.0976562 0.90625 -0.210938 0.6875 -0.359375 L 0.6875 -1.390625 C 0.832031 -1.015625 1.054688 -0.726562 1.359375 -0.53125 C 1.671875 -0.332031 1.988281 -0.234375 2.3125 -0.234375 C 2.644531 -0.234375 2.921875 -0.34375 3.140625 -0.5625 C 3.359375 -0.78125 3.46875 -1.050781 3.46875 -1.375 C 3.46875 -1.59375 3.421875 -1.773438 3.328125 -1.921875 C 3.242188 -2.078125 3.101562 -2.222656 2.90625 -2.359375 C 2.71875 -2.492188 2.453125 -2.644531 2.109375 -2.8125 C 1.609375 -3.039062 1.242188 -3.273438 1.015625 -3.515625 C 0.796875 -3.765625 0.6875 -4.066406 0.6875 -4.421875 C 0.6875 -4.722656 0.757812 -4.988281 0.90625 -5.21875 C 1.050781 -5.457031 1.242188 -5.640625 1.484375 -5.765625 C 1.734375 -5.890625 2.007812 -5.953125 2.3125 -5.953125 C 2.5625 -5.953125 2.804688 -5.914062 3.046875 -5.84375 C 3.296875 -5.78125 3.523438 -5.679688 3.734375 -5.546875 L 3.734375 -4.625 C 3.597656 -4.9375 3.390625 -5.179688 3.109375 -5.359375 C 2.835938 -5.535156 2.5625 -5.625 2.28125 -5.625 C 1.957031 -5.625 1.695312 -5.515625 1.5 -5.296875 C 1.300781 -5.085938 1.203125 -4.84375 1.203125 -4.5625 C 1.203125 -4.34375 1.257812 -4.160156 1.375 -4.015625 C 1.5 -3.867188 1.644531 -3.742188 1.8125 -3.640625 C 1.988281 -3.535156 2.234375 -3.410156 2.546875 -3.265625 C 2.859375 -3.109375 3.117188 -2.960938 3.328125 -2.828125 C 3.535156 -2.703125 3.707031 -2.535156 3.84375 -2.328125 C 3.976562 -2.117188 4.046875 -1.863281 4.046875 -1.5625 C 4.046875 -1.21875 3.960938 -0.921875 3.796875 -0.671875 C 3.640625 -0.421875 3.425781 -0.226562 3.15625 -0.09375 C 2.882812 0.0390625 2.59375 0.109375 2.28125 0.109375 Z M 2.28125 0.109375"/></g></g></g><g fill-opacity="1" fill="#ffffff"><g transform="translate(11.687702, 7.490928)"><g><path d="M 4.390625 -4.28125 C 4.390625 -3.945312 4.3125 -3.648438 4.15625 -3.390625 C 4 -3.128906 3.773438 -2.925781 3.484375 -2.78125 C 3.203125 -2.632812 2.863281 -2.5625 2.46875 -2.5625 C 2.226562 -2.5625 1.972656 -2.585938 1.703125 -2.640625 L 1.703125 -0.78125 C 1.703125 -0.5625 1.726562 -0.394531 1.78125 -0.28125 C 1.84375 -0.164062 1.90625 -0.0859375 1.96875 -0.046875 C 2.039062 -0.00390625 2.078125 0.0078125 2.078125 0 L 0.71875 0 C 0.71875 0.0078125 0.75 -0.00390625 0.8125 -0.046875 C 0.882812 -0.0859375 0.945312 -0.160156 1 -0.265625 C 1.0625 -0.378906 1.09375 -0.550781 1.09375 -0.78125 L 1.09375 -5.046875 C 1.09375 -5.273438 1.0625 -5.445312 1 -5.5625 C 0.945312 -5.6875 0.882812 -5.769531 0.8125 -5.8125 C 0.75 -5.851562 0.71875 -5.867188 0.71875 -5.859375 L 2.390625 -5.859375 C 2.679688 -5.859375 2.921875 -5.835938 3.109375 -5.796875 C 3.296875 -5.765625 3.460938 -5.710938 3.609375 -5.640625 C 3.859375 -5.503906 4.050781 -5.3125 4.1875 -5.0625 C 4.320312 -4.820312 4.390625 -4.5625 4.390625 -4.28125 Z M 3.734375 -4.171875 C 3.734375 -4.566406 3.609375 -4.890625 3.359375 -5.140625 C 3.109375 -5.390625 2.78125 -5.515625 2.375 -5.515625 L 1.703125 -5.515625 L 1.703125 -2.96875 C 1.941406 -2.925781 2.195312 -2.90625 2.46875 -2.90625 C 2.863281 -2.90625 3.171875 -3.019531 3.390625 -3.25 C 3.617188 -3.476562 3.734375 -3.785156 3.734375 -4.171875 Z M 3.734375 -4.171875"/></g></g></g><g fill-opacity="1" fill="#ffffff"><g transform="translate(23.158464, 7.490928)"><g><path d="M 1.796875 -2.28125 L 1.25 -0.921875 C 1.164062 -0.710938 1.125 -0.539062 1.125 -0.40625 C 1.125 -0.21875 1.207031 -0.0820312 1.375 0 L 0.15625 0 C 0.21875 0 0.300781 -0.0546875 0.40625 -0.171875 C 0.519531 -0.285156 0.644531 -0.507812 0.78125 -0.84375 L 3 -6.125 L 5.21875 -0.8125 C 5.34375 -0.507812 5.460938 -0.300781 5.578125 -0.1875 C 5.691406 -0.0703125 5.78125 -0.0078125 5.84375 0 L 4.4375 0 C 4.582031 -0.0703125 4.65625 -0.175781 4.65625 -0.3125 C 4.65625 -0.4375 4.609375 -0.609375 4.515625 -0.828125 L 3.921875 -2.28125 Z M 3.78125 -2.625 L 2.859375 -4.890625 L 1.9375 -2.625 Z M 3.78125 -2.625"/></g></g></g><g fill-opacity="1" fill="#ffffff"><g transform="translate(35.821996, 7.490928)"><g/></g></g><g fill-opacity="1" fill="#ffffff"><g transform="translate(44.809354, 7.490928)"><g/></g></g><g fill-opacity="1" fill="#ffffff"><g transform="translate(53.801698, 7.490928)"><g><path d="M 2.4375 -2.953125 C 2.695312 -2.953125 2.921875 -3.007812 3.109375 -3.125 C 3.304688 -3.25 3.453125 -3.410156 3.546875 -3.609375 C 3.648438 -3.804688 3.703125 -4.007812 3.703125 -4.21875 C 3.703125 -4.445312 3.65625 -4.65625 3.5625 -4.84375 C 3.46875 -5.039062 3.320312 -5.203125 3.125 -5.328125 C 2.9375 -5.453125 2.703125 -5.515625 2.421875 -5.515625 L 1.703125 -5.515625 L 1.703125 -0.78125 C 1.703125 -0.550781 1.726562 -0.378906 1.78125 -0.265625 C 1.84375 -0.148438 1.90625 -0.0703125 1.96875 -0.03125 C 2.039062 0 2.078125 0.0078125 2.078125 0 L 0.71875 0 C 0.71875 0.0078125 0.75 -0.00390625 0.8125 -0.046875 C 0.882812 -0.0859375 0.945312 -0.160156 1 -0.265625 C 1.0625 -0.378906 1.09375 -0.550781 1.09375 -0.78125 L 1.09375 -5.046875 C 1.09375 -5.273438 1.0625 -5.445312 1 -5.5625 C 0.945312 -5.6875 0.882812 -5.769531 0.8125 -5.8125 C 0.75 -5.863281 0.71875 -5.878906 0.71875 -5.859375 L 2.40625 -5.859375 C 2.851562 -5.859375 3.21875 -5.785156 3.5 -5.640625 C 3.789062 -5.492188 4 -5.304688 4.125 -5.078125 C 4.25 -4.847656 4.3125 -4.597656 4.3125 -4.328125 C 4.3125 -4.097656 4.257812 -3.875 4.15625 -3.65625 C 4.050781 -3.4375 3.894531 -3.242188 3.6875 -3.078125 C 3.488281 -2.921875 3.253906 -2.8125 2.984375 -2.75 L 2.859375 -2.71875 L 4.34375 -0.8125 C 4.550781 -0.59375 4.71875 -0.421875 4.84375 -0.296875 C 4.976562 -0.179688 5.070312 -0.101562 5.125 -0.0625 C 5.1875 -0.03125 5.222656 -0.0078125 5.234375 0 L 4.234375 0 L 1.921875 -2.953125 Z M 2.4375 -2.953125"/></g></g></g><g fill-opacity="1" fill="#ffffff"><g transform="translate(65.884807, 7.490928)"><g><path d="M 0.71875 0 C 0.71875 0.0195312 0.75 0.0078125 0.8125 -0.03125 C 0.882812 -0.0820312 0.945312 -0.171875 1 -0.296875 C 1.0625 -0.421875 1.09375 -0.601562 1.09375 -0.84375 L 1.09375 -5.03125 C 1.09375 -5.257812 1.0625 -5.4375 1 -5.5625 C 0.945312 -5.6875 0.882812 -5.769531 0.8125 -5.8125 C 0.75 -5.863281 0.71875 -5.878906 0.71875 -5.859375 L 3.8125 -5.859375 L 3.8125 -5 C 3.707031 -5.34375 3.398438 -5.515625 2.890625 -5.515625 L 1.703125 -5.515625 L 1.703125 -3.09375 L 3.171875 -3.09375 C 3.285156 -3.09375 3.378906 -3.109375 3.453125 -3.140625 C 3.535156 -3.179688 3.597656 -3.222656 3.640625 -3.265625 C 3.679688 -3.304688 3.703125 -3.332031 3.703125 -3.34375 L 3.703125 -2.515625 C 3.703125 -2.523438 3.679688 -2.550781 3.640625 -2.59375 C 3.597656 -2.632812 3.535156 -2.671875 3.453125 -2.703125 C 3.378906 -2.742188 3.285156 -2.765625 3.171875 -2.765625 L 1.703125 -2.765625 L 1.703125 -0.34375 L 3.03125 -0.34375 C 3.289062 -0.34375 3.507812 -0.394531 3.6875 -0.5 C 3.875 -0.601562 4.007812 -0.738281 4.09375 -0.90625 L 3.9375 0 Z M 0.71875 0"/></g></g></g><g fill-opacity="1" fill="#ffffff"><g transform="translate(77.185474, 7.490928)"><g><path d="M 2.28125 0.109375 C 1.976562 0.109375 1.691406 0.0664062 1.421875 -0.015625 C 1.148438 -0.0976562 0.90625 -0.210938 0.6875 -0.359375 L 0.6875 -1.390625 C 0.832031 -1.015625 1.054688 -0.726562 1.359375 -0.53125 C 1.671875 -0.332031 1.988281 -0.234375 2.3125 -0.234375 C 2.644531 -0.234375 2.921875 -0.34375 3.140625 -0.5625 C 3.359375 -0.78125 3.46875 -1.050781 3.46875 -1.375 C 3.46875 -1.59375 3.421875 -1.773438 3.328125 -1.921875 C 3.242188 -2.078125 3.101562 -2.222656 2.90625 -2.359375 C 2.71875 -2.492188 2.453125 -2.644531 2.109375 -2.8125 C 1.609375 -3.039062 1.242188 -3.273438 1.015625 -3.515625 C 0.796875 -3.765625 0.6875 -4.066406 0.6875 -4.421875 C 0.6875 -4.722656 0.757812 -4.988281 0.90625 -5.21875 C 1.050781 -5.457031 1.242188 -5.640625 1.484375 -5.765625 C 1.734375 -5.890625 2.007812 -5.953125 2.3125 -5.953125 C 2.5625 -5.953125 2.804688 -5.914062 3.046875 -5.84375 C 3.296875 -5.78125 3.523438 -5.679688 3.734375 -5.546875 L 3.734375 -4.625 C 3.597656 -4.9375 3.390625 -5.179688 3.109375 -5.359375 C 2.835938 -5.535156 2.5625 -5.625 2.28125 -5.625 C 1.957031 -5.625 1.695312 -5.515625 1.5 -5.296875 C 1.300781 -5.085938 1.203125 -4.84375 1.203125 -4.5625 C 1.203125 -4.34375 1.257812 -4.160156 1.375 -4.015625 C 1.5 -3.867188 1.644531 -3.742188 1.8125 -3.640625 C 1.988281 -3.535156 2.234375 -3.410156 2.546875 -3.265625 C 2.859375 -3.109375 3.117188 -2.960938 3.328125 -2.828125 C 3.535156 -2.703125 3.707031 -2.535156 3.84375 -2.328125 C 3.976562 -2.117188 4.046875 -1.863281 4.046875 -1.5625 C 4.046875 -1.21875 3.960938 -0.921875 3.796875 -0.671875 C 3.640625 -0.421875 3.425781 -0.226562 3.15625 -0.09375 C 2.882812 0.0390625 2.59375 0.109375 2.28125 0.109375 Z M 2.28125 0.109375"/></g></g></g><g fill-opacity="1" fill="#ffffff"><g transform="translate(88.486141, 7.490928)"><g><path d="M 0.546875 -2.859375 C 0.546875 -3.460938 0.671875 -4 0.921875 -4.46875 C 1.179688 -4.9375 1.546875 -5.300781 2.015625 -5.5625 C 2.484375 -5.820312 3.023438 -5.953125 3.640625 -5.953125 C 4.148438 -5.953125 4.628906 -5.835938 5.078125 -5.609375 C 5.523438 -5.390625 5.882812 -5.054688 6.15625 -4.609375 C 6.425781 -4.160156 6.5625 -3.625 6.5625 -3 C 6.5625 -2.394531 6.429688 -1.859375 6.171875 -1.390625 C 5.910156 -0.921875 5.546875 -0.550781 5.078125 -0.28125 C 4.609375 -0.0195312 4.066406 0.109375 3.453125 0.109375 C 2.941406 0.109375 2.460938 -0.00390625 2.015625 -0.234375 C 1.578125 -0.460938 1.222656 -0.800781 0.953125 -1.25 C 0.679688 -1.695312 0.546875 -2.234375 0.546875 -2.859375 Z M 5.875 -2.875 C 5.875 -3.382812 5.765625 -3.847656 5.546875 -4.265625 C 5.335938 -4.679688 5.046875 -5.007812 4.671875 -5.25 C 4.304688 -5.488281 3.890625 -5.609375 3.421875 -5.609375 C 2.992188 -5.609375 2.613281 -5.5 2.28125 -5.28125 C 1.945312 -5.0625 1.6875 -4.753906 1.5 -4.359375 C 1.3125 -3.960938 1.21875 -3.503906 1.21875 -2.984375 C 1.21875 -2.472656 1.320312 -2.007812 1.53125 -1.59375 C 1.75 -1.175781 2.046875 -0.847656 2.421875 -0.609375 C 2.796875 -0.367188 3.210938 -0.25 3.671875 -0.25 C 4.097656 -0.25 4.476562 -0.359375 4.8125 -0.578125 C 5.144531 -0.796875 5.40625 -1.101562 5.59375 -1.5 C 5.78125 -1.894531 5.875 -2.351562 5.875 -2.875 Z M 5.875 -2.875"/></g></g></g><g fill-opacity="1" fill="#ffffff"><g transform="translate(102.2532, 7.490928)"><g><path d="M 2.4375 -2.953125 C 2.695312 -2.953125 2.921875 -3.007812 3.109375 -3.125 C 3.304688 -3.25 3.453125 -3.410156 3.546875 -3.609375 C 3.648438 -3.804688 3.703125 -4.007812 3.703125 -4.21875 C 3.703125 -4.445312 3.65625 -4.65625 3.5625 -4.84375 C 3.46875 -5.039062 3.320312 -5.203125 3.125 -5.328125 C 2.9375 -5.453125 2.703125 -5.515625 2.421875 -5.515625 L 1.703125 -5.515625 L 1.703125 -0.78125 C 1.703125 -0.550781 1.726562 -0.378906 1.78125 -0.265625 C 1.84375 -0.148438 1.90625 -0.0703125 1.96875 -0.03125 C 2.039062 0 2.078125 0.0078125 2.078125 0 L 0.71875 0 C 0.71875 0.0078125 0.75 -0.00390625 0.8125 -0.046875 C 0.882812 -0.0859375 0.945312 -0.160156 1 -0.265625 C 1.0625 -0.378906 1.09375 -0.550781 1.09375 -0.78125 L 1.09375 -5.046875 C 1.09375 -5.273438 1.0625 -5.445312 1 -5.5625 C 0.945312 -5.6875 0.882812 -5.769531 0.8125 -5.8125 C 0.75 -5.863281 0.71875 -5.878906 0.71875 -5.859375 L 2.40625 -5.859375 C 2.851562 -5.859375 3.21875 -5.785156 3.5 -5.640625 C 3.789062 -5.492188 4 -5.304688 4.125 -5.078125 C 4.25 -4.847656 4.3125 -4.597656 4.3125 -4.328125 C 4.3125 -4.097656 4.257812 -3.875 4.15625 -3.65625 C 4.050781 -3.4375 3.894531 -3.242188 3.6875 -3.078125 C 3.488281 -2.921875 3.253906 -2.8125 2.984375 -2.75 L 2.859375 -2.71875 L 4.34375 -0.8125 C 4.550781 -0.59375 4.71875 -0.421875 4.84375 -0.296875 C 4.976562 -0.179688 5.070312 -0.101562 5.125 -0.0625 C 5.1875 -0.03125 5.222656 -0.0078125 5.234375 0 L 4.234375 0 L 1.921875 -2.953125 Z M 2.4375 -2.953125"/></g></g></g><g fill-opacity="1" fill="#ffffff"><g transform="translate(114.336308, 7.490928)"><g><path d="M 1.265625 -5.515625 C 1.015625 -5.515625 0.804688 -5.46875 0.640625 -5.375 C 0.472656 -5.28125 0.351562 -5.15625 0.28125 -5 L 0.40625 -5.859375 L 4.4375 -5.859375 L 4.5625 -5 C 4.476562 -5.15625 4.351562 -5.28125 4.1875 -5.375 C 4.03125 -5.46875 3.828125 -5.515625 3.578125 -5.515625 L 2.71875 -5.515625 L 2.71875 -0.796875 C 2.71875 -0.566406 2.742188 -0.390625 2.796875 -0.265625 C 2.859375 -0.148438 2.921875 -0.0703125 2.984375 -0.03125 C 3.054688 0.0078125 3.09375 0.0195312 3.09375 0 L 1.75 0 C 1.75 0.0195312 1.78125 0.0078125 1.84375 -0.03125 C 1.914062 -0.0703125 1.976562 -0.148438 2.03125 -0.265625 C 2.082031 -0.378906 2.109375 -0.554688 2.109375 -0.796875 L 2.109375 -5.515625 Z M 1.265625 -5.515625"/></g></g></g></g></g><g transform="matrix(1, 0, 0, 1, 197, 192)"><g clip-path="url(#f01f0f3453)"><g fill-opacity="1" fill="#bb6830"><g transform="translate(0.412267, 14.157608)"><g><path d="M 11.65625 -0.53125 C 11.363281 -0.0390625 10.992188 0.203125 10.546875 0.203125 C 10.222656 0.203125 9.820312 0.0546875 9.34375 -0.234375 C 8.863281 -0.523438 8.28125 -0.960938 7.59375 -1.546875 C 6.445312 -0.378906 5.328125 0.203125 4.234375 0.203125 C 3.191406 0.203125 2.382812 -0.0703125 1.8125 -0.625 C 1.238281 -1.175781 0.953125 -1.898438 0.953125 -2.796875 C 0.953125 -3.503906 1.15625 -4.097656 1.5625 -4.578125 C 1.976562 -5.066406 2.59375 -5.570312 3.40625 -6.09375 C 2.488281 -7.25 2.03125 -8.265625 2.03125 -9.140625 C 2.03125 -9.734375 2.160156 -10.234375 2.421875 -10.640625 C 2.691406 -11.046875 3.039062 -11.347656 3.46875 -11.546875 C 3.894531 -11.753906 4.351562 -11.859375 4.84375 -11.859375 C 5.289062 -11.859375 5.710938 -11.765625 6.109375 -11.578125 C 6.515625 -11.398438 6.835938 -11.140625 7.078125 -10.796875 C 7.328125 -10.460938 7.453125 -10.066406 7.453125 -9.609375 C 7.453125 -8.953125 7.21875 -8.367188 6.75 -7.859375 C 6.289062 -7.359375 5.632812 -6.828125 4.78125 -6.265625 C 5.8125 -4.960938 6.832031 -3.851562 7.84375 -2.9375 C 8.289062 -3.644531 8.644531 -4.269531 8.90625 -4.8125 C 9.164062 -5.351562 9.296875 -5.835938 9.296875 -6.265625 C 9.296875 -6.679688 9.160156 -7.019531 8.890625 -7.28125 L 11.09375 -7.28125 C 10.832031 -7.019531 10.445312 -6.320312 9.9375 -5.1875 C 9.59375 -4.382812 9.0625 -3.488281 8.34375 -2.5 C 8.414062 -2.457031 8.519531 -2.378906 8.65625 -2.265625 C 9.21875 -1.816406 9.707031 -1.460938 10.125 -1.203125 C 10.550781 -0.941406 10.957031 -0.8125 11.34375 -0.8125 C 11.457031 -0.8125 11.648438 -0.894531 11.921875 -1.0625 C 11.859375 -0.875 11.769531 -0.695312 11.65625 -0.53125 Z M 4.71875 -11.328125 C 4.15625 -11.328125 3.738281 -11.15625 3.46875 -10.8125 C 3.195312 -10.476562 3.0625 -10.082031 3.0625 -9.625 C 3.0625 -9.207031 3.195312 -8.734375 3.46875 -8.203125 C 3.75 -7.679688 4.070312 -7.179688 4.4375 -6.703125 C 5.132812 -7.128906 5.632812 -7.550781 5.9375 -7.96875 C 6.238281 -8.394531 6.390625 -8.882812 6.390625 -9.4375 C 6.390625 -10.050781 6.222656 -10.519531 5.890625 -10.84375 C 5.566406 -11.164062 5.175781 -11.328125 4.71875 -11.328125 Z M 3.765625 -5.625 C 3.179688 -5.257812 2.742188 -4.882812 2.453125 -4.5 C 2.171875 -4.113281 2.03125 -3.671875 2.03125 -3.171875 C 2.03125 -2.722656 2.144531 -2.300781 2.375 -1.90625 C 2.613281 -1.519531 2.925781 -1.207031 3.3125 -0.96875 C 3.707031 -0.726562 4.132812 -0.609375 4.59375 -0.609375 C 5.070312 -0.609375 5.488281 -0.71875 5.84375 -0.9375 C 6.195312 -1.15625 6.613281 -1.503906 7.09375 -1.984375 C 6.519531 -2.515625 5.9375 -3.101562 5.34375 -3.75 C 4.75 -4.394531 4.222656 -5.019531 3.765625 -5.625 Z M 3.765625 -5.625"/></g></g></g></g></g></svg>