<svg width="161" height="49" viewBox="0 0 161 49" fill="none" xmlns="http://www.w3.org/2000/svg">
<mask id="mask0_155_108" style="mask-type:luminance" maskUnits="userSpaceOnUse" x="62" y="6" width="99" height="23">
<path d="M62.4648 6.74609H160.313V28.5148H62.4648V6.74609Z" fill="white"/>
</mask>
<g mask="url(#mask0_155_108)">
<path d="M160.097 6.74609C158.605 10.7826 156.341 14.3365 153.296 17.4077C150.256 20.4823 146.594 22.828 142.307 24.4412C138.025 26.0578 133.181 26.8476 127.778 26.8172C122.378 26.7868 116.539 25.6832 110.269 23.5097C106.296 22.1462 102.634 21.1978 99.2795 20.668C95.9281 20.1415 92.7455 19.9862 89.735 20.2022C86.7211 20.4216 83.8051 20.9818 80.9803 21.8796C78.152 22.7807 75.2529 23.9147 72.2728 25.2782C71.2771 25.7136 70.376 26.149 69.5694 26.5843C68.7628 27.0163 67.9865 27.3133 67.2406 27.4686C66.4981 27.6238 65.705 27.5766 64.868 27.3268C64.2808 27.1547 63.626 26.8273 62.9038 26.3481C62.8261 26.365 62.7418 26.3717 62.654 26.3751C62.6 26.4257 62.5426 26.473 62.4785 26.5135V27.013C62.6135 27.1007 62.7215 27.2155 62.8025 27.3471C63.5821 27.8162 64.301 28.1233 64.9591 28.2583C65.8603 28.444 66.7141 28.4608 67.5208 28.3056C68.3274 28.1503 69.1509 27.8736 69.9879 27.4686C70.8283 27.0636 71.7733 26.6147 72.8296 26.1186C75.56 24.8766 78.3073 23.8202 81.0714 22.9495C83.8355 22.0821 86.7211 21.5218 89.735 21.2755C92.7455 21.0257 95.9113 21.181 99.2323 21.7412C102.553 22.2981 106.141 23.3848 109.992 24.9981C114.521 26.8611 119.411 27.904 124.66 28.12C129.904 28.3393 134.933 27.715 139.746 26.257C144.559 24.799 148.841 22.4702 152.601 19.2707C156.354 16.0746 159.01 11.9605 160.563 6.93172L160.097 6.74609Z" fill="#F8D794"/>
</g>
<mask id="mask1_155_108" style="mask-type:luminance" maskUnits="userSpaceOnUse" x="0" y="0" width="64" height="49">
<path d="M63.936 0H0V48.384H63.936V0Z" fill="white"/>
</mask>
<g mask="url(#mask1_155_108)">
<mask id="mask2_155_108" style="mask-type:luminance" maskUnits="userSpaceOnUse" x="0" y="0" width="26" height="48">
<path d="M0.864258 0.863281H25.9203V48.0019H0.864258V0.863281Z" fill="white"/>
</mask>
<g mask="url(#mask2_155_108)">
<path d="M25.2556 37.6841C25.4243 37.6841 25.5661 37.7414 25.6741 37.8596C25.7888 37.9743 25.8496 38.1161 25.8496 38.2781C25.8496 38.4468 25.7855 38.5886 25.6606 38.6966C25.5425 38.8113 25.3973 38.8721 25.2286 38.8721C24.1655 38.8518 22.9606 39.0914 21.6106 39.5876C20.2673 40.0904 18.8701 40.7283 17.4121 41.5046C15.9541 42.2774 14.5366 43.0503 13.1596 43.8266C11.3236 44.8593 9.6631 45.7503 8.1781 46.4996C6.69985 47.2556 5.4511 47.6336 4.4251 47.6336C3.86485 47.6336 3.3991 47.4986 3.0211 47.2286C2.05585 46.4996 1.8601 44.9066 2.4271 42.4496C2.7781 40.9443 3.1966 39.2096 3.6826 37.2386C4.17535 35.2676 4.71535 33.1683 5.3026 30.9476C5.88647 28.7268 6.48385 26.4757 7.0981 24.1976C7.7191 21.9127 8.32997 19.7156 8.9341 17.6096C9.7441 14.7948 10.4461 12.4222 11.0401 10.4951C11.6341 8.56119 12.1403 6.98169 12.5656 5.75656C12.9976 4.52469 13.3553 3.57631 13.6456 2.90806C13.9426 2.24319 14.1923 1.77069 14.4016 1.49056C14.6176 1.20369 14.7931 1.04169 14.9281 1.00456C15.0631 0.960688 15.1913 0.947188 15.3196 0.964062C15.7145 1.02819 15.944 1.32519 16.0081 1.85506C16.0688 2.38831 16.0553 3.21856 15.9676 4.35256C15.9473 4.51456 15.8765 4.64956 15.7516 4.75756C15.6233 4.85881 15.4816 4.89931 15.3196 4.87906C15.1475 4.87906 15.0023 4.81831 14.8876 4.69006C14.7796 4.56519 14.7323 4.42006 14.7526 4.25806C14.7965 3.88006 14.8268 3.53581 14.8471 3.21856C14.594 3.78556 14.2531 4.66306 13.8211 5.85106C13.3958 7.03906 12.8626 8.68269 12.2146 10.7786C11.5666 12.8778 10.7735 15.5711 9.8386 18.8651C9.25135 20.9103 8.6641 23.0332 8.0701 25.2371C7.4761 27.4342 6.8956 29.6043 6.3286 31.7441C5.76835 33.8771 5.25535 35.8818 4.7896 37.7651C4.32047 39.6551 3.92897 41.3054 3.6151 42.7196C3.4261 43.5566 3.32485 44.2181 3.3181 44.7041C3.30797 45.1968 3.34847 45.5579 3.4396 45.7841C3.53747 46.0169 3.63535 46.1756 3.7366 46.2566C4.0336 46.4624 4.48585 46.4996 5.1001 46.3646C5.71097 46.2296 6.4231 45.9731 7.2331 45.5951C8.04985 45.2238 8.9206 44.7884 9.8386 44.2856C10.7566 43.7894 11.6645 43.2899 12.5656 42.7871C13.9763 41.9771 15.4411 41.1738 16.9531 40.3841C18.4651 39.5909 19.9265 38.9328 21.3406 38.4131C22.7615 37.8899 24.0676 37.6469 25.2556 37.6841Z" fill="#F8D794"/>
</g>
<path d="M30.9188 25.6821C31.0605 25.7631 31.1483 25.8914 31.1753 26.0601C31.209 26.2221 31.1888 26.3774 31.1078 26.5191C30.7095 27.1503 30.2067 27.8523 29.5958 28.6251C28.9917 29.3913 28.3335 30.1236 27.6248 30.8256C26.9228 31.5209 26.2208 32.0946 25.5188 32.5536C24.8235 33.0126 24.1857 33.2421 23.6018 33.2421C23.3487 33.2421 23.1293 33.2016 22.9403 33.1206C22.2282 32.8068 21.8367 32.0508 21.7658 30.8526C21.6949 29.6579 21.9413 27.9636 22.5083 25.7766C22.542 25.6079 22.6332 25.4796 22.7783 25.3986C22.9302 25.3176 23.0787 25.2974 23.2238 25.3311C23.3858 25.3784 23.5073 25.4729 23.5883 25.6146C23.676 25.7598 23.6997 25.9083 23.6558 26.0601C23.3217 27.3933 23.1158 28.4496 23.0348 29.2326C22.9538 30.0156 22.9335 30.6063 22.9808 31.0011C23.0348 31.3994 23.109 31.6626 23.2103 31.7976C23.3183 31.9326 23.3858 32.0001 23.4128 32.0001C23.6828 32.1284 24.0777 32.0373 24.6008 31.7301C25.1205 31.4264 25.701 30.9741 26.3423 30.3801C26.9903 29.7861 27.6417 29.1044 28.2998 28.3281C28.9545 27.5451 29.5452 26.7284 30.0683 25.8711C30.1763 25.7193 30.3045 25.6281 30.4598 25.6011C30.6218 25.5674 30.7737 25.5944 30.9188 25.6821ZM23.5343 23.1711C23.1192 23.1543 22.9032 23.0361 22.8863 22.8201C22.8762 22.5974 22.9707 22.3713 23.1698 22.1451C23.3655 21.9123 23.5748 21.7536 23.7908 21.6726C24.1215 21.5748 24.3645 21.5984 24.5198 21.7401C24.6717 21.8853 24.7425 22.0743 24.7358 22.3071C24.7257 22.5333 24.621 22.7391 24.4253 22.9281C24.2262 23.1171 23.9292 23.1981 23.5343 23.1711Z" fill="#F8D794"/>
<path d="M40.9904 25.9903C41.1322 26.0916 41.2132 26.2266 41.2334 26.3953C41.2604 26.5675 41.2199 26.7126 41.1119 26.8273C40.5719 27.5226 39.9408 28.1368 39.2219 28.6768C38.4997 29.2168 37.7504 29.6185 36.9674 29.8783C36.1844 30.1416 35.4284 30.1888 34.6994 30.0268C34.4092 30.7558 33.9974 31.3195 33.4574 31.7143C32.9242 32.1126 32.3909 32.3083 31.8509 32.3083C31.8509 32.3083 31.8442 32.3083 31.8374 32.3083C31.8273 32.3083 31.8239 32.3083 31.8239 32.3083C31.2569 32.2915 30.7574 32.1025 30.3254 31.7413C29.9002 31.3735 29.6099 30.8638 29.4479 30.2158C29.2589 29.4868 29.2286 28.795 29.3534 28.1368C29.4817 27.4821 29.7078 26.9016 30.0419 26.3953C30.3727 25.8925 30.7473 25.5043 31.1624 25.2343C31.3042 25.1365 31.4729 25.1196 31.6619 25.1803C31.8509 24.7213 32.1142 24.367 32.4584 24.1138C32.8094 23.8641 33.1672 23.7696 33.5384 23.8303C33.7713 23.8776 34.0244 24.0193 34.2944 24.2623C34.5644 24.4986 34.7804 24.9238 34.9424 25.5448C35.1112 26.1591 35.1652 27.0568 35.1044 28.2448C35.0842 28.4541 35.0538 28.66 35.0099 28.8658C35.5769 28.9738 36.1709 28.9165 36.7919 28.6903C37.4197 28.4575 38.0272 28.1065 38.6144 27.6373C39.1983 27.1615 39.7079 26.6451 40.1399 26.0848C40.2479 25.96 40.3829 25.8891 40.5449 25.8688C40.7137 25.8418 40.8622 25.8823 40.9904 25.9903ZM31.8509 31.0933C32.1209 31.0933 32.4213 30.9685 32.7554 30.7153C33.0862 30.4656 33.3629 30.0876 33.5789 29.5813C32.8229 29.1696 32.2829 28.6903 31.9589 28.1503C31.6349 27.6103 31.4628 27.067 31.4459 26.5168C31.0038 26.9421 30.7169 27.4753 30.5819 28.1233C30.4469 28.7646 30.4537 29.3451 30.6089 29.8648C30.6629 30.1011 30.7844 30.3643 30.9734 30.6613C31.1624 30.9516 31.4527 31.0933 31.8509 31.0933ZM33.8894 28.1773C33.9232 27.3403 33.9063 26.6923 33.8354 26.2333C33.7612 25.7743 33.6734 25.4638 33.5654 25.3018C33.4642 25.1331 33.3933 25.0386 33.3494 25.0183C33.3292 25.0183 33.3224 25.0183 33.3224 25.0183C33.2583 25.0183 33.1638 25.0825 33.0389 25.2073C32.9107 25.3356 32.8094 25.5246 32.7284 25.7743C32.6002 26.1726 32.6103 26.6046 32.7554 27.0703C32.9073 27.5395 33.2853 27.9715 33.8894 28.3663C33.8894 28.3056 33.8894 28.2415 33.8894 28.1773Z" fill="#F8D794"/>
<path d="M53.4005 25.7087C53.5422 25.7897 53.6469 25.9112 53.711 26.0732C53.7717 26.2284 53.765 26.3769 53.684 26.5187C53.2857 27.3759 52.7997 28.3378 52.226 29.4077C51.659 30.4708 51.0515 31.5373 50.4035 32.6072C49.7555 33.677 49.0974 34.6524 48.4325 35.5367C47.7642 36.4277 47.1162 37.1465 46.4885 37.6967C45.8675 38.2535 45.3039 38.5337 44.801 38.5337C44.6559 38.5337 44.5209 38.4999 44.396 38.4392C43.9539 38.2772 43.667 37.8789 43.532 37.2512C43.397 36.6302 43.4139 35.7324 43.586 34.5647C43.8729 32.4587 44.6424 29.4752 45.8945 25.6142C45.8742 25.6142 45.8574 25.6209 45.8405 25.6277C45.8304 25.6378 45.8169 25.6412 45.8 25.6412C45.3849 25.9382 44.8854 26.2453 44.3015 26.5592C43.7142 26.8663 43.1067 27.0722 42.479 27.1802C41.858 27.2882 41.264 27.1532 40.697 26.7752C39.9039 26.2082 39.5022 25.4252 39.482 24.4262C39.4651 23.4272 39.8397 22.3337 40.616 21.1457C40.859 20.7677 41.183 20.3492 41.588 19.8902C41.9997 19.4312 42.4284 19.0768 42.8705 18.8237C43.3194 18.5739 43.7244 18.5638 44.0855 18.7967C44.2745 18.9047 44.4129 19.0869 44.504 19.3367C44.5917 19.5797 44.585 19.9644 44.477 20.4842C44.3757 21.0073 44.1294 21.7093 43.7345 22.5902C43.3362 23.4643 42.7422 24.5983 41.9525 25.9922C42.4284 26.0563 42.965 25.9213 43.559 25.5872C44.1597 25.2564 44.6862 24.9392 45.1385 24.6422C45.5772 24.3553 45.9417 24.1427 46.232 24.0077C46.529 23.8727 46.8024 23.8997 47.0555 24.0887C47.2782 24.2709 47.3694 24.5004 47.3255 24.7772C47.2884 25.0472 47.2479 25.2564 47.204 25.3982C46.5189 27.5683 45.989 29.3739 45.611 30.8117C45.2397 32.2528 44.9832 33.407 44.8415 34.2812C44.7065 35.1519 44.639 35.81 44.639 36.2522C44.639 36.6909 44.6694 36.9812 44.7335 37.1162C44.7942 37.2512 44.828 37.3254 44.828 37.3457C45.0777 37.3895 45.5975 36.9879 46.3805 36.1442C47.1635 35.297 48.095 34.0247 49.175 32.3237C50.2617 30.6227 51.4025 28.5234 52.5905 26.0192C52.6715 25.8572 52.7862 25.7492 52.9415 25.6952C53.1035 25.6412 53.2554 25.6479 53.4005 25.7087ZM40.7915 23.5757C40.6734 24.0178 40.6362 24.3823 40.6835 24.6692C40.7375 24.9493 40.8185 25.1687 40.9265 25.3307C41.5914 24.1629 42.0942 23.2112 42.4385 22.4822C42.7794 21.7532 43.0122 21.1929 43.1405 20.7947C43.2654 20.3998 43.3362 20.1197 43.3565 19.9577C43.1304 20.0859 42.8435 20.3222 42.4925 20.6732C42.1482 21.0242 41.8175 21.4528 41.4935 21.9557C41.1762 22.4619 40.9434 23.0019 40.7915 23.5757Z" fill="#F8D794"/>
<path d="M62.7181 25.8278C62.8598 25.919 62.9408 26.0506 62.9611 26.2193C62.9881 26.3813 62.9611 26.5265 62.8801 26.6513C61.6448 28.3625 60.5176 29.7766 59.4916 30.8903C58.4723 31.9973 57.4531 32.9187 56.4271 33.6578C55.6609 34.1978 54.9016 34.4678 54.1456 34.4678C53.5583 34.4678 53.0521 34.3092 52.6201 33.9953C52.3231 33.7861 52.0362 33.4182 51.7561 32.8883C51.4793 32.3585 51.3308 31.589 51.3106 30.5798C51.2836 29.564 51.5333 28.2308 52.0531 26.5838C52.0531 26.5838 52.0531 26.5771 52.0531 26.5568C52.6808 24.5521 53.4166 23.0198 54.2536 21.9668C55.0973 20.9138 55.8229 20.3806 56.4271 20.3603C56.9131 20.3435 57.2269 20.5493 57.3721 20.9813C57.5948 21.5855 57.3214 22.4461 56.5486 23.5598C55.7824 24.677 54.6484 25.8616 53.1466 27.1103C52.6876 28.5683 52.4648 29.7125 52.4851 30.5393C52.5121 31.3696 52.6268 31.967 52.8361 32.3348C53.0419 32.696 53.2073 32.9221 53.3356 33.0233C53.9633 33.4823 54.7666 33.3541 55.7386 32.6453C56.7004 31.9805 57.6724 31.1131 58.6546 30.0398C59.6333 28.97 60.7099 27.6098 61.8811 25.9628C61.9789 25.838 62.1106 25.7603 62.2726 25.7333C62.4413 25.6996 62.5898 25.73 62.7181 25.8278ZM56.2111 21.6698C55.9849 21.815 55.6744 22.1255 55.2796 22.6013C54.8813 23.0705 54.4729 23.7488 54.0511 24.6398C54.8071 23.9108 55.3369 23.2966 55.6441 22.7903C55.9579 22.2773 56.1469 21.9061 56.2111 21.6698Z" fill="#F8D794"/>
</g>
</svg>
